<?xml version="1.0" encoding="utf-8" ?>
<svg baseProfile="full" height="200mm" version="1.1" viewBox="0,0,200,200" width="200mm" xmlns="http://www.w3.org/2000/svg" xmlns:ev="http://www.w3.org/2001/xml-events" xmlns:xlink="http://www.w3.org/1999/xlink"><defs /><rect fill="#1a1a1a" height="200" width="200" x="0" y="0" /><text alignment-baseline="middle" fill="#e1ed5e" style="dominant-baseline: central; font-size:9.0px; font-family:Arial;" text-anchor="middle" x="100.0" y="100.0">2018</text><line stroke="#e1ed5e" stroke-width="0.3" x1="100.0" x2="100.0" y1="15.0" y2="10.0" /><path d="M 100.0 14.0 a86.0,86.0 0 0,1 42.46469731375804,11.215312516191453" fill="none" id="id1" stroke="none" /><text fill="#e1ed5e" style="font-size:6.75px; font-family:Arial;" text-anchor="middle"><textPath startOffset="22.20632615414155" xlink:href="#id1">January</textPath></text><line stroke="#e1ed5e" stroke-width="0.3" x1="143.23703022742887" x2="145.7803849466894" y1="26.81831364943548" y2="22.513508569990506" /><path d="M 143.74570117128098 25.957352633546492 a86.0,86.0 0 0,1 28.547481713284135,27.462654790039103" fill="none" id="id2" stroke="none" /><text fill="#e1ed5e" style="font-size:6.75px; font-family:Arial;" text-anchor="middle"><textPath startOffset="19.985693538727396" xlink:href="#id2">February</textPath></text><line stroke="#e1ed5e" stroke-width="0.3" x1="172.23445277983987" x2="176.4835382374775" y1="55.19839476539836" y2="52.563006222186495" /><path d="M 173.08426987136738 54.67131705675599 a86.0,86.0 0 0,1 12.851231095245387,41.99856678651699" fill="none" id="id3" stroke="none" /><text fill="#e1ed5e" style="font-size:6.75px; font-family:Arial;" text-anchor="middle"><textPath startOffset="22.20632615414155" xlink:href="#id3">March</textPath></text><line stroke="#e1ed5e" stroke-width="0.3" x1="184.98032266829074" x2="189.97916517819016" y1="98.17113171792111" y2="98.06355123074" /><path d="M 185.9800911702706 98.14961562048488 a86.0,86.0 0 0,1 -9.607161424134198,41.387399972396054" fill="none" id="id4" stroke="none" /><text fill="#e1ed5e" style="font-size:6.75px; font-family:Arial;" text-anchor="middle"><textPath startOffset="21.466115282336823" xlink:href="#id4">April</textPath></text><line stroke="#e1ed5e" stroke-width="0.3" x1="174.80103733775053" x2="179.2010983576182" y1="140.37084112569926" y2="142.7455964860345" /><path d="M 175.68104954172406 140.8457921977663 a86.0,86.0 0 0,1 -30.038265399797805,32.042727171017184" fill="none" id="id5" stroke="none" /><text fill="#e1ed5e" style="font-size:6.75px; font-family:Arial;" text-anchor="middle"><textPath startOffset="22.206326154141568" xlink:href="#id5">May</textPath></text><line stroke="#e1ed5e" stroke-width="0.3" x1="143.8653032363475" x2="146.44561519142675" y1="172.8068346515853" y2="177.08958963109032" /><path d="M 144.38136562736335 173.6633856474863 a86.0,86.0 0 0,1 -40.68145358897372,12.25698825130547" fill="none" id="id6" stroke="none" /><text fill="#e1ed5e" style="font-size:6.75px; font-family:Arial;" text-anchor="middle"><textPath startOffset="21.466115282336833" xlink:href="#id6">June</textPath></text><line stroke="#e1ed5e" stroke-width="0.3" x1="102.19456741930631" x2="102.32365962044197" y1="184.97166512339345" y2="189.96999836594603" /><path d="M 102.22038585953345 185.97133177190398 a86.0,86.0 0 0,1 -42.740103519485714,-10.115201625700543" fill="none" id="id7" stroke="none" /><text fill="#e1ed5e" style="font-size:6.75px; font-family:Arial;" text-anchor="middle"><textPath startOffset="22.20632615414155" xlink:href="#id7">July</textPath></text><line stroke="#e1ed5e" stroke-width="0.3" x1="58.666819895761336" x2="56.23545636021788" y1="174.27360380694188" y2="178.64263932499728" /><path d="M 58.180547188652646 175.14741091055294 a86.0,86.0 0 0,1 -31.652253787137756,-30.449443065178592" fill="none" id="id8" stroke="none" /><text fill="#e1ed5e" style="font-size:6.75px; font-family:Arial;" text-anchor="middle"><textPath startOffset="22.20632615414155" xlink:href="#id8">August</textPath></text><line stroke="#e1ed5e" stroke-width="0.3" x1="26.63291911575756" x2="22.317208475507996" y1="142.92168965132927" y2="145.44649492493687" /><path d="M 25.769776987707644 143.4266507060508 a86.0,86.0 0 0,1 -11.730757126820373,-40.83630448921669" fill="none" id="id9" stroke="none" /><text fill="#e1ed5e" style="font-size:6.75px; font-family:Arial;" text-anchor="middle"><textPath startOffset="21.46611528233685" xlink:href="#id9">September</textPath></text><line stroke="#e1ed5e" stroke-width="0.3" x1="15.007084014347285" x2="10.007500721073583" y1="101.09737516637583" y2="101.16192664675087" /><path d="M 14.007167355692545 101.11028546245083 a86.0,86.0 0 0,1 10.666146001902534,-42.60595125391555" fill="none" id="id10" stroke="none" /><text fill="#e1ed5e" style="font-size:6.75px; font-family:Arial;" text-anchor="middle"><textPath startOffset="22.20632615414155" xlink:href="#id10">October</textPath></text><line stroke="#e1ed5e" stroke-width="0.3" x1="26.266209847984243" x2="21.928928074336255" y1="57.711370442889674" y2="55.22380399835377" /><path d="M 25.398753493254645 57.213857153982495 a86.0,86.0 0 0,1 29.58750427330803,-30.492523968695096" fill="none" id="id11" stroke="none" /><text fill="#e1ed5e" style="font-size:6.75px; font-family:Arial;" text-anchor="middle"><textPath startOffset="21.46611528233685" xlink:href="#id11">November</textPath></text><path d="M 82.95767976084542 87.72973835380427 l -27.451307521274543 -19.764604882986806 a54.82623080995236,54.82623080995236 0 0,0 0.5580197780497028,-0.7611383501445614 l 27.107025130711207 20.234205676802866" fill="#ff1602" stroke="none" /><path d="M 83.17141714833178 87.43820079747576 l -26.782302078861917 -19.991814156987086 a54.42101641079937,54.42101641079937 0 0,0 0.5668183641190683,-0.7458665254788833 l 26.434207774518743 20.449865458347" fill="#ff0a01" stroke="none" /><path d="M 83.39014120810768 87.1503855733568 l -26.16382494876401 -20.24069359830503 a54.079168872419274,54.079168872419274 0 0,0 0.5759326401517195,-0.7313759661173647 l 25.81153822801832 20.688061958375442" fill="#ff0000" stroke="none" /><path d="M 84.07557802195018 86.31012108654704 l -28.21252875216538 -24.253696805562388 a58.204685018528316,58.204685018528316 0 0,0 0.659675648204692,-0.754123302364246 l 27.790861240382842 24.735735664129574" fill="#ff780b" stroke="none" /><path d="M 84.31358615837235 86.03803664274999 l -24.775233296186403 -22.05162396842532 a54.16754896770778,54.16754896770778 0 0,0 0.62590953472648,-0.6911449412541494 l 24.391980120843876 22.474821696949025" fill="#ff0300" stroke="none" /><path d="M 84.80347519578584 85.50635884689758 l -27.3440909526331 -26.07934689221551 a58.78665960825834,58.78665960825834 0 0,0 0.7047001448056697,-0.7262554441137884 l 26.89112654412431 26.546166531879425" fill="#ff880c" stroke="none" /><path d="M 85.05521093208273 85.24692304244772 l -26.043806846308563 -25.709716271342707 a57.59602964531498,57.59602964531498 0 0,0 0.7025733736967532,-0.6995563003530165 l 25.597397672444497 26.154208422345835" fill="#ff6709" stroke="none" /><path d="M 85.31137513191541 84.99185889309783 l -25.62189167368032 -26.17923523255586 a57.63104817363684,57.63104817363684 0 0,0 0.7149454160672286,-0.6877769238061557 l 25.167463014000663 26.61639524312433" fill="#ff6809" stroke="none" /><path d="M 85.57189188830299 84.74124197986013 l -25.063204847920904 -26.506134762989387 a57.47930121757543,57.47930121757543 0 0,0 0.7247650384473667,-0.6735901154894878 l 24.60323192567868 26.933629464553523" fill="#ff6409" stroke="none" /><path d="M 85.83668400450813 84.49514656593479 l -24.715698701714878 -27.056748999498453 a57.64605611434621,57.64605611434621 0 0,0 0.738388366818343,-0.6629323662931613 l 24.246299347300564 27.478180374560893" fill="#ff6909" stroke="none" /><path d="M 86.93701828274178 83.55741782278169 l -32.524334971781244 -40.938896042880906 a73.2859978824775,73.2859978824775 0 0,0 0.9944820742457788,-0.776209033162105 l 31.814820342376038 41.49268346526623" fill="#31ff44" stroke="none" /><path d="M 87.22198572758235 83.33499621200491 l -31.937594804548816 -41.652805126860784 a73.48777130757014,73.48777130757014 0 0,0 1.0104703150849863,-0.7610652920754369 l 31.21587833570544 42.19638700844207" fill="#32ff48" stroke="none" /><path d="M 87.51073957382395 83.11751280151077 l -30.80926662781247 -41.64674541886712 a72.80407623080995,72.80407623080995 0 0,0 1.0138996705826993,-0.7366412298089592 l 30.087821640875987 42.17090588349275" fill="#30ff38" stroke="none" /><path d="M 88.70189139769569 82.29822771554957 l -28.210880756971346 -44.200547603325326 a73.4360772895712,73.4360772895712 0 0,0 1.0714003622112551,-0.6709108085262327 l 27.445861242387846 44.67960275317449" fill="#32ff47" stroke="none" /><path d="M 89.00827224532344 82.1063720568725 l -27.829029729759714 -45.30336950810035 a74.16813128639492,74.16813128639492 0 0,0 1.0935841392389265,-0.6588722076950111 l 27.045083524303138 45.77568832525399" fill="#34ff59" stroke="none" /><line stroke="#e1ed5e" stroke-width="0.3" x1="56.762969772571076" x2="54.21961505331055" y1="26.818313649435495" y2="22.513508569990535" /><path d="M 56.25429882871897 25.957352633546506 a86.0,86.0 0 0,1 42.265352541879196,-11.944610805530505" fill="none" id="id12" stroke="none" /><text fill="#e1ed5e" style="font-size:6.75px; font-family:Arial;" text-anchor="middle"><textPath startOffset="22.20632615414155" xlink:href="#id12">December</textPath></text><path d="M 89.63071344664047 81.73862282372117 l -26.23830216855648 -46.20834132604297 a74.13811540497618,74.13811540497618 0 0,0 1.1151640351442218,-0.6205875781952805 l 25.43901404434021 46.653144301798434" fill="#34ff58" stroke="none" /><path d="M 89.94658935756843 81.56283822128135 l -24.70855845372415 -45.31354639066601 a72.61230809952355,72.61230809952355 0 0,0 1.102514005740283,-0.588924799388485 l 23.924899401455562 45.732149916556246" fill="#30ff33" stroke="none" /><path d="M 90.26544431104013 81.39251694778311 l -24.305211847112123 -46.45911246248193 a73.43274219163578,73.43274219163578 0 0,0 1.1250578413217578,-0.5762983238086354 l 23.5018935182016 46.87060331160307" fill="#32ff47" stroke="none" /><path d="M 90.91171255644093 81.06846463323043 l -22.838832667520936 -47.57487822277576 a73.77292218104816,73.77292218104816 0 0,0 1.149528931130351,-0.539719246665843 l 22.016525525090977 47.96096245208161" fill="#33ff4f" stroke="none" /><path d="M 91.23893434514133 80.91482961587045 l -21.65407063841697 -47.171388039418986 a72.90412916887242,72.90412916887242 0 0,0 1.145004068452483,-0.513729949447144 l 20.838884451497716 47.537138319382656" fill="#30ff3a" stroke="none" /><path d="M 91.56875222667455 80.76684994638697 l -20.98081863847059 -47.86091501165631 a73.25764955002649,73.25764955002649 0 0,0 1.1592717529323484,-0.4963396646816454 l 20.153863127747936 48.21497420430074" fill="#31ff43" stroke="none" /><path d="M 92.23578459929587 80.48803036053334 l -19.07740474939027 -47.94273768295528 a72.5989677077819,72.5989677077819 0 0,0 1.1650987771984456,-0.4520402246574633 l 18.249322807192147 48.2640206115033" fill="#30ff32" stroke="none" /><path d="M 92.57280143429618 80.3572730644239 l -17.013160166081885 -44.99473879649793 a69.10378507146638,69.10378507146638 0 0,0 1.1162488215359552,-0.41112386138301205 l 16.23612901877336 45.280925925687264" fill="#76ff27" stroke="none" /><path d="M 94.63758080256005 79.69619591428918 l -15.077652305094057 -57.088729396844975 a80.04624139756484,80.04624139756484 0 0,0 1.3352136597972284,-0.34037569165459286 l 14.09272975661183 57.339808084668434" fill="#43ffde" stroke="none" /><path d="M 95.33964822691252 79.52364482259891 l -13.98105531926245 -61.42906553220327 a84.0,84.0 0 0,0 1.4126291033859162,-0.30874600761652715 l 12.921583491723013 61.66062503791566" fill="#4dd2ff" stroke="none" /><path d="M 96.40284397218896 79.31037775812273 l -9.202454400316682 -52.92939860507359 a74.7234250926416,74.7234250926416 0 0,0 1.2691268260863806,-0.20941680060251464 l 8.289998368091416 53.07996166861573" fill="#35ff66" stroke="none" /><path d="M 96.75951476605007 79.25152402106235 l -8.30723864157008 -53.190349272421095 a74.83515087347803,74.83515087347803 0 0,0 1.2744462526979925,-0.18782024903230354 l 7.390423408443438 53.325464005614364" fill="#35ff69" stroke="none" /><path d="M 98.19473922651362 79.07773832637324 l -4.590513426364827 -53.202243428365534 a74.39992059290631,74.39992059290631 0 0,0 1.2768791091593685,-0.09911039389456128 l 3.674044127843124 53.27337908444856" fill="#34ff5f" stroke="none" /><path d="M 98.55514903715128 79.0497635885617 l -3.6696843340431036 -53.21016238378937 a74.33655373213341,74.33655373213341 0 0,0 1.277307130715538,-0.07705065429922504 l 2.7532151544879424 53.2654463074689" fill="#34ff5d" stroke="none" /><path d="M 99.63851952072746 79.00311137660856 l -0.9171825638588273 -53.27529768527475 a74.28319216516675,74.28319216516675 0 0,0 1.27866304313135,-0.011005856500561108 l 1.3050618146684958e-14 53.28319216516675" fill="#34ff5c" stroke="none" /></svg>