<?xml version="1.0" encoding="utf-8" ?>
<svg baseProfile="full" height="200mm" version="1.1" viewBox="0,0,200,200" width="200mm" xmlns="http://www.w3.org/2000/svg" xmlns:ev="http://www.w3.org/2001/xml-events" xmlns:xlink="http://www.w3.org/1999/xlink"><defs /><rect fill="#1a1a1a" height="200" width="200" x="0" y="0" /><text alignment-baseline="middle" fill="#e1ed5e" style="dominant-baseline: central; font-size:9.0px; font-family:Arial;" text-anchor="middle" x="100.0" y="100.0">2023</text><line stroke="#e1ed5e" stroke-width="0.3" x1="100.0" x2="100.0" y1="15.0" y2="10.0" /><path d="M 100.0 14.0 a86.0,86.0 0 0,1 42.46469731375804,11.215312516191453" fill="none" id="id61" stroke="none" /><text fill="#e1ed5e" style="font-size:6.75px; font-family:Arial;" text-anchor="middle"><textPath startOffset="22.20632615414155" xlink:href="#id61">January</textPath></text><path d="M 101.08401301168833 79.027996857942 l 3.1826217472087794 -61.57301855490564 a82.65521628498728,82.65521628498728 0 0,0 1.4202447093806454,0.08567303938990577 l -4.242028505429037 61.50911224613543" fill="#ff0000" stroke="none" /><path d="M 102.88285421437855 79.19881850522331 l 8.539019073327234 -61.61313487367186 a83.20203562340967,83.20203562340967 0 0,0 1.4169347062100621,0.20881934316139256 l -9.598322759965951 61.457021046349496" fill="#b7ff1f" stroke="none" /><path d="M 105.36241919743992 79.69619591428918 l 15.879856137355182 -60.12612517799048 a83.18778625954198,83.18778625954198 0 0,0 1.3813217456909082,0.37756741282856504 l -16.9124757722698 59.84387122433562" fill="#beff1e" stroke="none" /><path d="M 109.41281617654863 81.2277094730956 l 27.91191402445432 -55.66565302044992 a83.27150127226463,83.27150127226463 0 0,0 1.2757967722424164,0.6535126589580396 l -28.86597128428549 55.17694783617938" fill="#93ff23" stroke="none" /><line stroke="#e1ed5e" stroke-width="0.3" x1="143.23703022742887" x2="145.7803849466894" y1="26.81831364943548" y2="22.513508569990506" /><path d="M 143.74570117128098 25.957352633546492 a86.0,86.0 0 0,1 28.547481713284135,27.462654790039103" fill="none" id="id62" stroke="none" /><text fill="#e1ed5e" style="font-size:6.75px; font-family:Arial;" text-anchor="middle"><textPath startOffset="19.985693538727396" xlink:href="#id62">February</textPath></text><path d="M 110.68208982089419 81.91981866633111 l 31.827010282304606 -53.869432560570026 a83.56895674300256,83.56895674300256 0 0,0 1.232196147345283,0.7423843916387382 l -32.74956849586753 53.31360155947267" fill="#34ff5f" stroke="none" /><path d="M 112.48926042617603 83.11751280151076 l 37.11714979412909 -50.17349185308438 a83.41043256997456,83.41043256997456 0 0,0 1.1469087248217715,0.8638278736243151 l -37.97530467270924 49.527147389954216" fill="#50ff2b" stroke="none" /><path d="M 113.06298171725822 83.55741782278167 l 38.75794431309666 -48.78523894328023 a83.30712468193383,83.30712468193383 0 0,0 1.1151118868312284,0.9016762616504996 l -39.59195959849238 48.1108565843656" fill="#81ff25" stroke="none" /><path d="M 113.89432698308785 84.25364557470407 l 41.09256043878627 -46.569943380461766 a83.10763358778627,83.10763358778627 0 0,0 1.0645257277149027,0.955741709061353 l -41.88809715409716 45.85570266263111" fill="#e9ff1a" stroke="none" /><path d="M 114.42810811169701 84.74124197986012 l 43.07383794024693 -45.553669617717 a83.69363867684478,83.69363867684478 0 0,0 1.0382664418269458,0.9988114944200982 l -43.85158762568629 44.8054750365346" fill="#3bffa0" stroke="none" /><line stroke="#e1ed5e" stroke-width="0.3" x1="172.23445277983987" x2="176.4835382374775" y1="55.19839476539836" y2="52.563006222186495" /><path d="M 173.08426987136738 54.67131705675599 a86.0,86.0 0 0,1 12.851231095245387,41.99856678651699" fill="none" id="id63" stroke="none" /><text fill="#e1ed5e" style="font-size:6.75px; font-family:Arial;" text-anchor="middle"><textPath startOffset="22.20632615414155" xlink:href="#id63">March</textPath></text><path d="M 118.89224826269711 90.83032412892265 l 56.091870265963735 -27.225148758868734 a83.3498727735369,83.3498727735369 0 0,0 0.6153673722794758,1.296120624266405 l -56.55219583208497 26.255585718961786" fill="#6dff28" stroke="none" /><path d="M 119.61058180528143 92.48833698450437 l 58.83174541584429 -22.534989046486903 a84.0,84.0 0 0,0 0.505581645993499,1.354707451882667 l -59.21093165033941 21.518958457574904" fill="#4dd2ff" stroke="none" /><path d="M 119.85752413597 93.16781622104841 l 59.424356790949375 -20.44555624164289 a83.84325699745546,83.84325699745546 0 0,0 0.45779498791986756,1.3687487446345066 l -59.76748907264101 19.41963439408607" fill="#44ffe7" stroke="none" /><path d="M 120.45610955862082 95.25157060432595 l 61.11848306293277 -14.187292102800187 a83.74351145038167,83.74351145038167 0 0,0 0.3138611620621035,1.406978047535106 l -61.35363861199691 13.133135885715118" fill="#3effb8" stroke="none" /><path d="M 120.73433829027371 96.67025291283417 l 61.9972542618337 -9.956197969792793 a83.79160305343513,83.79160305343513 0 0,0 0.21643812594868667,1.426056824066097 l -62.15944828122169 8.887542033334615" fill="#41ffcf" stroke="none" /><path d="M 120.87857604477298 97.74499172005257 l 61.930921241543764 -6.688901574751612 a83.2910941475827,83.2910941475827 0 0,0 0.14168558514398835,1.4267545066326728 l -62.036883952369976 5.6218715374145045" fill="#89ff24" stroke="none" /><line stroke="#e1ed5e" stroke-width="0.3" x1="184.98032266829074" x2="189.97916517819016" y1="98.17113171792111" y2="98.06355123074" /><path d="M 185.9800911702706 98.14961562048488 a86.0,86.0 0 0,1 -9.607161424134198,41.387399972396054" fill="none" id="id64" stroke="none" /><text fill="#e1ed5e" style="font-size:6.75px; font-family:Arial;" text-anchor="middle"><textPath startOffset="21.466115282336823" xlink:href="#id64">April</textPath></text><path d="M 120.99824983174949 100.27111621757518 l 62.62607793331701 0.8085885969971365 a83.63129770992367,83.63129770992367 0 0,0 -0.030975190055203137,1.4392953671931077 l -62.6028806805768 -1.886473779980359" fill="#38ff80" stroke="none" /><line stroke="#e1ed5e" stroke-width="0.3" x1="174.80103733775053" x2="179.2010983576182" y1="140.37084112569926" y2="142.7455964860345" /><path d="M 175.68104954172406 140.8457921977663 a86.0,86.0 0 0,1 -30.038265399797805,32.042727171017184" fill="none" id="id65" stroke="none" /><text fill="#e1ed5e" style="font-size:6.75px; font-family:Arial;" text-anchor="middle"><textPath startOffset="22.206326154141568" xlink:href="#id65">May</textPath></text><line stroke="#e1ed5e" stroke-width="0.3" x1="143.8653032363475" x2="146.44561519142675" y1="172.8068346515853" y2="177.08958963109032" /><path d="M 144.38136562736335 173.6633856474863 a86.0,86.0 0 0,1 -40.68145358897372,12.25698825130547" fill="none" id="id66" stroke="none" /><text fill="#e1ed5e" style="font-size:6.75px; font-family:Arial;" text-anchor="middle"><textPath startOffset="21.466115282336833" xlink:href="#id66">June</textPath></text><line stroke="#e1ed5e" stroke-width="0.3" x1="102.19456741930631" x2="102.32365962044197" y1="184.97166512339345" y2="189.96999836594603" /><path d="M 102.22038585953345 185.97133177190398 a86.0,86.0 0 0,1 -42.740103519485714,-10.115201625700543" fill="none" id="id67" stroke="none" /><text fill="#e1ed5e" style="font-size:6.75px; font-family:Arial;" text-anchor="middle"><textPath startOffset="22.20632615414155" xlink:href="#id67">July</textPath></text><line stroke="#e1ed5e" stroke-width="0.3" x1="58.666819895761336" x2="56.23545636021788" y1="174.27360380694188" y2="178.64263932499728" /><path d="M 58.180547188652646 175.14741091055294 a86.0,86.0 0 0,1 -31.652253787137756,-30.449443065178592" fill="none" id="id68" stroke="none" /><text fill="#e1ed5e" style="font-size:6.75px; font-family:Arial;" text-anchor="middle"><textPath startOffset="22.20632615414155" xlink:href="#id68">August</textPath></text><line stroke="#e1ed5e" stroke-width="0.3" x1="26.63291911575756" x2="22.317208475507996" y1="142.92168965132927" y2="145.44649492493687" /><path d="M 25.769776987707644 143.4266507060508 a86.0,86.0 0 0,1 -11.730757126820373,-40.83630448921669" fill="none" id="id69" stroke="none" /><text fill="#e1ed5e" style="font-size:6.75px; font-family:Arial;" text-anchor="middle"><textPath startOffset="21.46611528233685" xlink:href="#id69">September</textPath></text><line stroke="#e1ed5e" stroke-width="0.3" x1="15.007084014347285" x2="10.007500721073583" y1="101.09737516637583" y2="101.16192664675087" /><path d="M 14.007167355692545 101.11028546245083 a86.0,86.0 0 0,1 10.666146001902534,-42.60595125391555" fill="none" id="id70" stroke="none" /><text fill="#e1ed5e" style="font-size:6.75px; font-family:Arial;" text-anchor="middle"><textPath startOffset="22.20632615414155" xlink:href="#id70">October</textPath></text><line stroke="#e1ed5e" stroke-width="0.3" x1="26.266209847984243" x2="21.928928074336255" y1="57.711370442889674" y2="55.22380399835377" /><path d="M 25.398753493254645 57.213857153982495 a86.0,86.0 0 0,1 29.58750427330803,-30.492523968695096" fill="none" id="id71" stroke="none" /><text fill="#e1ed5e" style="font-size:6.75px; font-family:Arial;" text-anchor="middle"><textPath startOffset="21.46611528233685" xlink:href="#id71">November</textPath></text><line stroke="#e1ed5e" stroke-width="0.3" x1="56.762969772571076" x2="54.21961505331055" y1="26.818313649435495" y2="22.513508569990535" /><path d="M 56.25429882871897 25.957352633546506 a86.0,86.0 0 0,1 42.265352541879196,-11.944610805530505" fill="none" id="id72" stroke="none" /><text fill="#e1ed5e" style="font-size:6.75px; font-family:Arial;" text-anchor="middle"><textPath startOffset="22.20632615414155" xlink:href="#id72">December</textPath></text></svg>